<svg width="68" height="68" viewBox="0 0 68 68" fill="none" xmlns="http://www.w3.org/2000/svg">
<path d="M50 0H18C8.05887 0 0 8.05887 0 18V50C0 59.9411 8.05887 68 18 68H50C59.9411 68 68 59.9411 68 50V18C68 8.05887 59.9411 0 50 0Z" fill="black"/>
<g clip-path="url(#clip0_1042_4)">
<path d="M43.5025 48.2884C43.3598 48.7116 42.9636 49 42.5307 49C42.1668 49 41.8467 48.8047 41.6693 48.5093C41.1097 47.9651 38.5556 45.8651 35.4143 43.3256C35.9555 42.8907 36.5059 42.4442 37.0656 41.9977C38.5004 43.1581 39.6956 44.1326 40.6353 44.9093C41.4529 45.5861 42.0862 46.1186 42.5122 46.4907C43.2792 47.1581 43.7421 47.5628 43.5025 48.2884Z" fill="url(#paint0_linear_1042_4)"/>
<path d="M43.5025 48.2884C43.3598 48.7116 42.9636 49 42.5307 49C42.1668 49 41.8467 48.8047 41.6693 48.5093C41.1097 47.9651 38.5556 45.8651 35.4143 43.3256C35.9555 42.8907 36.5059 42.4442 37.0656 41.9977C38.5004 43.1581 39.6956 44.1326 40.6353 44.9093C41.4529 45.5861 42.0862 46.1186 42.5122 46.4907C43.2792 47.1581 43.7421 47.5628 43.5025 48.2884Z" fill="url(#paint1_linear_1042_4)"/>
<path d="M32.015 26.5023L25.3685 20.8535C24.9378 20.4837 24.8756 19.8256 25.2326 19.3791C25.5919 18.9349 26.2321 18.8721 26.6674 19.2395L33.6133 25.1442L32.015 26.5023Z" fill="white"/>
<path d="M44 34.4814C43.9954 34.8 43.848 35.0977 43.6039 35.293C41.6739 36.8256 39.3502 38.6837 37.0679 40.5186C35.8749 41.4767 34.6935 42.4279 33.5857 43.3256C30.4467 45.8651 27.8926 47.9651 27.333 48.5093C27.1533 48.8047 26.8355 49 26.4716 49C26.0364 49 25.6425 48.7116 25.4998 48.2884C25.2602 47.5628 25.7232 47.1581 26.4901 46.4907C26.9184 46.1186 27.5518 45.5861 28.367 44.9093C29.3067 44.1326 30.5019 43.1581 31.9367 41.9954C32.5954 41.4651 33.3024 40.8907 34.0601 40.2791C34.5138 39.914 34.9698 39.5488 35.4189 39.1884C37.8302 37.2488 40.101 35.4372 41.3538 34.4395L35.3867 29.3674L36.985 28.0093L43.6315 33.6581C43.8687 33.8605 44.0046 34.1651 44 34.4814Z" fill="white"/>
<path d="M43.6315 20.8536L36.9849 26.5001L33.6133 29.3699L27.6461 34.4396C28.899 35.4373 31.1698 37.2489 33.581 39.1885L33.3599 39.3652C33.3599 39.3652 32.5654 40.0071 31.9321 40.5187C29.6498 38.6838 27.3237 36.8257 25.3961 35.2931C25.1519 35.0978 25.0046 34.8001 24.9999 34.4815C24.9953 34.1652 25.1312 33.8606 25.3684 33.6582L32.015 28.0117L35.3866 25.142L42.3326 19.2396C42.7678 18.8722 43.4081 18.935 43.7673 19.3792C44.1243 19.8257 44.0644 20.4838 43.6315 20.8536Z" fill="url(#paint2_linear_1042_4)"/>
</g>
<defs>
<linearGradient id="paint0_linear_1042_4" x1="39.0278" y1="56.8791" x2="41.6132" y2="-4.87" gradientUnits="userSpaceOnUse">
<stop stop-color="white"/>
<stop offset="1" stop-color="white"/>
</linearGradient>
<linearGradient id="paint1_linear_1042_4" x1="39.0278" y1="56.8791" x2="41.6132" y2="-4.87" gradientUnits="userSpaceOnUse">
<stop stop-color="white"/>
<stop offset="1" stop-color="white"/>
</linearGradient>
<linearGradient id="paint2_linear_1042_4" x1="33.2932" y1="56.6396" x2="35.8786" y2="-5.10944" gradientUnits="userSpaceOnUse">
<stop stop-color="white"/>
<stop offset="1" stop-color="white"/>
</linearGradient>
<clipPath id="clip0_1042_4">
<rect width="19" height="30" fill="white" transform="translate(25 19)"/>
</clipPath>
</defs>
</svg>
